{
  "accessors": [
    {
      "bufferView": 2,
      "componentType": 5126,
      "count": 2458,
      "max": [
        0.64338892698287964,
        1.0067832469940186,
        -0.44487988948822021
      ],
      "min": [
        -0.62865513563156128,
        0.37455642223358154,
        -1.006033182144165
      ],
      "type": "VEC3"
    },
    {
      "bufferView": 2,
      "byteOffset": 29496,
      "componentType": 5126,
      "count": 2458,
      "max": [
        1,
        1,
        1
      ],
      "min": [
        -1,
        -1,
        -1
      ],
      "type": "VEC3"
    },
    {
      "bufferView": 1,
      "componentType": 5126,
      "count": 2458,
      "max": [
        1,
        1
      ],
      "min": [
        5.8673322200775146e-08,
        0
      ],
      "type": "VEC2"
    },
    {
      "bufferView": 0,
      "componentType": 5125,
      "count": 4260,
      "max": [
        2457
      ],
      "min": [
        0
      ],
      "type": "SCALAR"
    },
    {
      "bufferView": 2,
      "byteOffset": 58992,
      "componentType": 5126,
      "count": 4,
      "max": [
        0.72589963674545288,
        0.86000001430511475,
        0.86000001430511475
      ],
      "min": [
        0.72589963674545288,
        -0.7465934157371521,
        -0.86000001430511475
      ],
      "type": "VEC3"
    },
    {
      "bufferView": 2,
      "byteOffset": 59040,
      "componentType": 5126,
      "count": 4,
      "max": [
        1,
        0,
        0
      ],
      "min": [
        1,
        0,
        0
      ],
      "type": "VEC3"
    },
    {
      "bufferView": 1,
      "byteOffset": 19664,
      "componentType": 5126,
      "count": 4,
      "max": [
        0.60749995708465576,
        0.73250001668930054
      ],
      "min": [
        0.40667584538459778,
        0.51749998331069946
      ],
      "type": "VEC2"
    },
    {
      "bufferView": 0,
      "byteOffset": 17040,
      "componentType": 5125,
      "count": 6,
      "max": [
        3
      ],
      "min": [
        0
      ],
      "type": "SCALAR"
    },
    {
      "bufferView": 2,
      "byteOffset": 59088,
      "componentType": 5126,
      "count": 195,
      "max": [
        0.58912956714630127,
        -0.77455407381057739,
        0.15077768266201019
      ],
      "min": [
        0.58912932872772217,
        -0.9468955397605896,
        -0.15079724788665771
      ],
      "type": "VEC3"
    },
    {
      "bufferView": 2,
      "byteOffset": 61428,
      "componentType": 5126,
      "count": 195,
      "max": [
        1,
        1.5253891660904628e-06,
        -9.4119897653399676e-08
      ],
      "min": [
        1,
        1.5253891660904628e-06,
        -9.4119897653399676e-08
      ],
      "type": "VEC3"
    },
    {
      "bufferView": 1,
      "byteOffset": 19696,
      "componentType": 5126,
      "count": 195,
      "max": [
        0.98999220132827759,
        0.49000000953674316
      ],
      "min": [
        0.51000779867172241,
        0.010031148791313171
      ],
      "type": "VEC2"
    },
    {
      "bufferView": 0,
      "byteOffset": 17064,
      "componentType": 5125,
      "count": 579,
      "max": [
        194
      ],
      "min": [
        0
      ],
      "type": "SCALAR"
    },
    {
      "bufferView": 2,
      "byteOffset": 63768,
      "componentType": 5126,
      "count": 16,
      "max": [
        0.83011811971664429,
        0.96695953607559204,
        0.64571470022201538
      ],
      "min": [
        -0.87795233726501465,
        0.89347678422927856,
        -0.76096338033676147
      ],
      "type": "VEC3"
    },
    {
      "bufferView": 2,
      "byteOffset": 63960,
      "componentType": 5126,
      "count": 16,
      "max": [
        1,
        -0,
        -0
      ],
      "min": [
        -1,
        -0,
        -0
      ],
      "type": "VEC3"
    },
    {
      "bufferView": 1,
      "byteOffset": 21256,
      "componentType": 5126,
      "count": 16,
      "max": [
        0.6087501049041748,
        0.73375004529953003
      ],
      "min": [
        0.39125001430511475,
        0.064999997615814209
      ],
      "type": "VEC2"
    },
    {
      "bufferView": 0,
      "byteOffset": 19380,
      "componentType": 5125,
      "count": 24,
      "max": [
        15
      ],
      "min": [
        0
      ],
      "type": "SCALAR"
    },
    {
      "bufferView": 2,
      "byteOffset": 64152,
      "componentType": 5126,
      "count": 199,
      "max": [
        0.47418776154518127,
        -0.96256810426712036,
        0.080378338694572449
      ],
      "min": [
        -0.34295067191123962,
        -0.99375081062316895,
        -0.70603251457214355
      ],
      "type": "VEC3"
    },
    {
      "bufferView": 2,
      "byteOffset": 66540,
      "componentType": 5126,
      "count": 199,
      "max": [
        1.9823553998321586e-07,
        -1,
        -0
      ],
      "min": [
        0,
        -1,
        -0
      ],
      "type": "VEC3"
    },
    {
      "bufferView": 1,
      "byteOffset": 21384,
      "componentType": 5126,
      "count": 199,
      "max": [
        0.86374998092651367,
        0.7387499213218689
      ],
      "min": [
        0.010007783770561218,
        0.010031148791313171
      ],
      "type": "VEC2"
    },
    {
      "bufferView": 0,
      "byteOffset": 19476,
      "componentType": 5125,
      "count": 585,
      "max": [
        198
      ],
      "min": [
        0
      ],
      "type": "SCALAR"
    },
    {
      "bufferView": 2,
      "byteOffset": 68928,
      "componentType": 5126,
      "count": 65533,
      "max": [
        1,
        1,
        1
      ],
      "min": [
        -1,
        -1.0000001192092896,
        -1
      ],
      "type": "VEC3"
    },
    {
      "bufferView": 2,
      "byteOffset": 855324,
      "componentType": 5126,
      "count": 65533,
      "max": [
        0.99930697679519653,
        1,
        1
      ],
      "min": [
        -1,
        -1,
        -1
      ],
      "type": "VEC3"
    },
    {
      "bufferView": 1,
      "byteOffset": 22976,
      "componentType": 5126,
      "count": 65533,
      "max": [
        1,
        1
      ],
      "min": [
        0.0051282639615237713,
        0
      ],
      "type": "VEC2"
    },
    {
      "bufferView": 0,
      "byteOffset": 21816,
      "componentType": 5125,
      "count": 98223,
      "max": [
        65532
      ],
      "min": [
        0
      ],
      "type": "SCALAR"
    },
    {
      "bufferView": 2,
      "byteOffset": 1641720,
      "componentType": 5126,
      "count": 27091,
      "max": [
        1,
        1,
        1
      ],
      "min": [
        -1,
        -1.0000001192092896,
        -1
      ],
      "type": "VEC3"
    },
    {
      "bufferView": 2,
      "byteOffset": 1966812,
      "componentType": 5126,
      "count": 27091,
      "max": [
        1,
        1,
        1
      ],
      "min": [
        -1,
        -1,
        -1
      ],
      "type": "VEC3"
    },
    {
      "bufferView": 1,
      "byteOffset": 547240,
      "componentType": 5126,
      "count": 27091,
      "max": [
        1,
        1
      ],
      "min": [
        5.8673322200775146e-08,
        0
      ],
      "type": "VEC2"
    },
    {
      "bufferView": 0,
      "byteOffset": 414708,
      "componentType": 5125,
      "count": 44385,
      "max": [
        27090
      ],
      "min": [
        0
      ],
      "type": "SCALAR"
    }
  ],
  "asset": {
    "extras": {
      "author": "calp1 (https://sketchfab.com/calp1)",
      "license": "CC-BY-4.0 (http://creativecommons.org/licenses/by/4.0/)",
      "source": "https://sketchfab.com/3d-models/free-low-poly-phone-a04a9475d2514ee7b1a70172c343d0e0",
      "title": "Free Low Poly Phone"
    },
    "generator": "Sketchfab-9.14.0",
    "version": "2.0"
  },
  "bufferViews": [
    {
      "buffer": 0,
      "byteLength": 592248,
      "byteOffset": 0,
      "name": "floatBufferViews",
      "target": 34963
    },
    {
      "buffer": 0,
      "byteLength": 763968,
      "byteOffset": 592248,
      "byteStride": 8,
      "name": "floatBufferViews",
      "target": 34962
    },
    {
      "buffer": 0,
      "byteLength": 2291904,
      "byteOffset": 1356216,
      "byteStride": 12,
      "name": "floatBufferViews",
      "target": 34962
    }
  ],
  "buffers": [
    {
      "byteLength": 3648120,
      "uri": "scene.bin"
    }
  ],
  "materials": [
    {
      "doubleSided": true,
      "emissiveFactor": [
        0,
        0,
        0
      ],
      "name": "Material.007",
      "pbrMetallicRoughness": {
        "baseColorFactor": [
          0.1,
          0.1,
          0.1,
          1
        ],
        "metallicFactor": 0.204545,
        "roughnessFactor": 0.54090899999999997
      }
    },
    {
      "doubleSided": true,
      "emissiveFactor": [
        0,
        0,
        0
      ],
      "name": "Material.001",
      "pbrMetallicRoughness": {
        "baseColorFactor": [
          0,
          0,
          0,
          1
        ],
        "metallicFactor": 0,
        "roughnessFactor": 0.42727300000000001
      }
    },
    {
      "doubleSided": true,
      "emissiveFactor": [
        0,
        0,
        0
      ],
      "name": "Material.006",
      "pbrMetallicRoughness": {
        "baseColorFactor": [
          0.41254299999999999,
          0.39675500000000002,
          0.35639999999999999,
          1
        ],
        "metallicFactor": 0.57272699999999999,
        "roughnessFactor": 0.32727299999999998
      }
    },
    {
      "doubleSided": true,
      "emissiveFactor": [
        0,
        0,
        0
      ],
      "name": "Material.004",
      "pbrMetallicRoughness": {
        "baseColorFactor": [
          0.438002,
          0.47881099999999999,
          0.47881099999999999,
          1
        ],
        "metallicFactor": 0.354545,
        "roughnessFactor": 0.13636400000000001
      }
    },
    {
      "doubleSided": true,
      "emissiveFactor": [
        0,
        0,
        0
      ],
      "name": "Material.005",
      "pbrMetallicRoughness": {
        "baseColorFactor": [
          0.0438418,
          0.0438418,
          0.0438418,
          1
        ],
        "metallicFactor": 0.65909099999999998,
        "roughnessFactor": 0.66818200000000005
      }
    },
    {
      "doubleSided": true,
      "emissiveFactor": [
        0,
        0,
        0
      ],
      "name": "Material.002",
      "pbrMetallicRoughness": {
        "baseColorFactor": [
          0.50831599999999999,
          0.50831599999999999,
          0.50831599999999999,
          1
        ],
        "metallicFactor": 0.25,
        "roughnessFactor": 0.37727300000000003
      }
    }
  ],
  "meshes": [
    {
      "primitives": [
        {
          "attributes": {
            "NORMAL": 1,
            "POSITION": 0,
            "TEXCOORD_0": 2
          },
          "indices": 3,
          "material": 0,
          "mode": 4
        }
      ]
    },
    {
      "primitives": [
        {
          "attributes": {
            "NORMAL": 5,
            "POSITION": 4,
            "TEXCOORD_0": 6
          },
          "indices": 7,
          "material": 1,
          "mode": 4
        }
      ]
    },
    {
      "primitives": [
        {
          "attributes": {
            "NORMAL": 9,
            "POSITION": 8,
            "TEXCOORD_0": 10
          },
          "indices": 11,
          "material": 2,
          "mode": 4
        }
      ]
    },
    {
      "primitives": [
        {
          "attributes": {
            "NORMAL": 13,
            "POSITION": 12,
            "TEXCOORD_0": 14
          },
          "indices": 15,
          "material": 3,
          "mode": 4
        }
      ]
    },
    {
      "primitives": [
        {
          "attributes": {
            "NORMAL": 17,
            "POSITION": 16,
            "TEXCOORD_0": 18
          },
          "indices": 19,
          "material": 4,
          "mode": 4
        }
      ]
    },
    {
      "primitives": [
        {
          "attributes": {
            "NORMAL": 21,
            "POSITION": 20,
            "TEXCOORD_0": 22
          },
          "indices": 23,
          "material": 5,
          "mode": 4
        }
      ]
    },
    {
      "primitives": [
        {
          "attributes": {
            "NORMAL": 25,
            "POSITION": 24,
            "TEXCOORD_0": 26
          },
          "indices": 27,
          "material": 5,
          "mode": 4
        }
      ]
    }
  ],
  "nodes": [
    {
      "children": [
        1
      ],
      "name": "RootNode (gltf orientation matrix)",
      "rotation": [
        -0.70710678118654746,
        -0,
        -0,
        0.70710678118654757
      ]
    },
    {
      "children": [
        2
      ],
      "matrix": [
        -0.63574612140655518,
        -0.77189821004867554,
        -2.832769343193999e-16,
        0,
        0.77189821004867554,
        -0.63574612140655518,
        1.6081226229577292e-16,
        0,
        -3.0422292090447587e-16,
        -1.1642519476080581e-16,
        1,
        0,
        -0.0023267730139195919,
        0.0049305437132716179,
        -8.6736173798840355e-19,
        1
      ],
      "name": "RootNode (model correction matrix)"
    },
    {
      "children": [
        3
      ],
      "name": "root"
    },
    {
      "children": [
        4
      ],
      "matrix": [
        1,
        0,
        0,
        0,
        0,
        2.2204460492503131e-16,
        1,
        0,
        0,
        -1,
        2.2204460492503131e-16,
        0,
        0,
        0,
        0,
        1
      ],
      "name": "GLTF_SceneRootNode"
    },
    {
      "children": [
        5,
        6,
        7,
        8,
        9,
        10,
        11
      ],
      "matrix": [
        0.096804618835449219,
        0,
        0,
        0,
        0,
        1.7499258518218994,
        0,
        0,
        0,
        0,
        1,
        0,
        0,
        0,
        0,
        1
      ],
      "name": "Cube.001_0"
    },
    {
      "mesh": 0,
      "name": ""
    },
    {
      "mesh": 1,
      "name": ""
    },
    {
      "mesh": 2,
      "name": ""
    },
    {
      "mesh": 3,
      "name": ""
    },
    {
      "mesh": 4,
      "name": ""
    },
    {
      "mesh": 5,
      "name": ""
    },
    {
      "mesh": 6,
      "name": ""
    }
  ],
  "scene": 0,
  "scenes": [
    {
      "name": "OSG_Scene",
      "nodes": [
        0
      ]
    }
  ]
}

